# xmcd
#
# Track frame offsets:
#	150
#	14778
#	29488
#	44173
#	56765
#	70733
#	85845
#	97563
#	110255
#	120673
#	133200
#	145793
#	160198
#
# Disc length: 2289 seconds
#
# Revision: 1
# Processed by: cddbd v1.5.2PL0 Copyright (c) Steve Scherf et al.
# Submitted via: audiograbber 1.83.01
#
DISCID=b308ef0d
DTITLE=Jimmy Dallas - The Best Of Me
DYEAR=1992
DGENRE=
TTITLE0=I´ll Try Anything Twice
TTITLE1=Nashvill In The Rain
TTITLE2=When I´m Good And Lonely, I´m To Lonely To be Good
TTITLE3=Two Steps Away With My Heart
TTITLE4=Go Ahed And Love Her, I Did
TTITLE5=Do What You Gotta Do
TTITLE6=Where I Want To Be
TTITLE7=We Are All But Chrildren
TTITLE8=out Of Sight, Out Of Mind
TTITLE9=You´ll Lose Her Yet
TTITLE10=The Best Of Me 
TTITLE11=I Turn To You
TTITLE12=Double Shot
EXTD=
EXTT0=
EXTT1=
EXTT2=
EXTT3=
EXTT4=
EXTT5=
EXTT6=
EXTT7=
EXTT8=
EXTT9=
EXTT10=
EXTT11=
EXTT12=
PLAYORDER=
